<svg height='100px' width='100px'  fill="#000000" xmlns="http://www.w3.org/2000/svg" xmlns:xlink="http://www.w3.org/1999/xlink" version="1.1" x="0px" y="0px" viewBox="0 0 85 71.75" enable-background="new 0 0 85 71.75" xml:space="preserve"><path d="M9.921,1.949L0.31,22.754c-0.777,1.684-0.043,3.678,1.64,4.455c1.684,0.776,3.677,0.043,4.455-1.64H6.404l6.41-13.874  c4.849,19.145,12.89,32.377,21.896,41.376c10.578,10.583,22.37,15.247,31.464,17.233c9.106,1.99,15.558,1.352,15.806,1.33  c1.844-0.188,3.188-1.834,3.002-3.678c-0.081-0.801-0.438-1.507-0.965-2.034c-0.688-0.688-1.67-1.073-2.713-0.968l-0.001,0.001  c0,0,0,0-0.022,0.001c-0.479,0.045-6.402,0.495-14.442-1.384c-8.05-1.884-18.178-6.048-27.381-15.249  c-8.105-8.112-15.574-20.192-20.174-38.43l13.689,6.188c1.689,0.764,3.679,0.014,4.442-1.676c0.591-1.31,0.273-2.799-0.687-3.758  c-0.278-0.278-0.61-0.512-0.991-0.685L14.35,0.298C12.67-0.46,10.694,0.277,9.921,1.949z"></path></svg>